<svg xmlns="http://www.w3.org/2000/svg" xmlns:xlink="http://www.w3.org/1999/xlink" width="106" height="26.053" viewBox="0 0 106 26.053"><defs><style>.a{fill:#da5031;}.b{clip-path:url(#a);}</style><clipPath id="a"><rect class="a" width="106" height="26.053"/></clipPath></defs><g class="b"><path class="a" d="M106,10.645V26.053H96.157V18.03H91.8v8.023H81.826V0h9.908V7.885a1.336,1.336,0,1,0,2.669,0V0H106l-2.652,10.645ZM9.974,15.663V0H0V26.053H18.59V15.663Zm33.673-.289V0H33.739V13.863a2.18,2.18,0,1,1-4.357,0V0H19.473V15.374a10.472,10.472,0,0,0,10.252,10.68H33.4a10.472,10.472,0,0,0,10.252-10.68m26.9,10.68H80.46V0H70.552ZM59.287,0V8.445L54.821,0H45.012V26.053h9.909V17.609l4.466,8.445h9.8V0Z" transform="translate(0 0)"/></g></svg>