<svg xmlns="http://www.w3.org/2000/svg" width="25.5" height="27.334" viewBox="0 0 25.5 27.334"><defs><style>.a{fill:none;}.b,.c{stroke:none;}.c{fill:#0d0e15;}</style></defs><g transform="translate(-1287 -32.828)"><g class="a" transform="translate(1287 38)"><path class="b" d="M2.25,0h21L25.5,22.162H0Z"/><path class="c" d="M 3.153619766235352 1.000001907348633 L 1.106672286987305 21.16176223754883 L 24.3933277130127 21.16176223754883 L 22.34638023376465 1.000001907348633 L 3.153619766235352 1.000001907348633 M 2.25 1.9073486328125e-06 L 23.25 1.9073486328125e-06 L 25.5 22.16176223754883 L 0 22.16176223754883 L 2.25 1.9073486328125e-06 Z"/></g><g class="a" transform="translate(1295.578 33.828)"><path class="b" d="M4.172,0A4.172,4.172,0,0,1,8.345,4.172H0A4.172,4.172,0,0,1,4.172,0Z"/><path class="c" d="M 4.1724853515625 2.86102294921875e-06 C 1.868085384368896 2.86102294921875e-06 -4.76837158203125e-06 1.868082761764526 -4.76837158203125e-06 4.172482490539551 C 2.654335498809814 4.172482490539551 4.387195587158203 4.172482490539551 8.344975471496582 4.172482490539551 C 8.344975471496582 1.868082761764526 6.476885318756104 2.86102294921875e-06 4.1724853515625 2.86102294921875e-06 M 4.1724853515625 -0.9999971389770508 C 7.024605274200439 -0.9999971389770508 9.344975471496582 1.320362567901611 9.344975471496582 4.172482490539551 L 9.344975471496582 5.172482490539551 L -1.000004768371582 5.172482490539551 L -1.000004768371582 4.172482490539551 C -1.000004768371582 1.320362567901611 1.320365428924561 -0.9999971389770508 4.1724853515625 -0.9999971389770508 Z"/></g></g></svg>