<svg xmlns="http://www.w3.org/2000/svg" width="414.611" height="83.091" viewBox="0 0 414.611 83.091"><defs><style>.a{opacity:0.88;}.b{fill:#618a80;}</style></defs><g class="a" transform="translate(-283.377 -3139.162)"><circle class="b" cx="1.25" cy="1.25" r="1.25" transform="translate(371.759 3140.02)"/><circle class="b" cx="1.25" cy="1.25" r="1.25" transform="translate(362.317 3163.269)"/><circle class="b" cx="1.25" cy="1.25" r="1.25" transform="translate(368.068 3210.045)"/><circle class="b" cx="1.25" cy="1.25" r="1.25" transform="translate(435.29 3166.323)"/><circle class="b" cx="1.25" cy="1.25" r="1.25" transform="translate(599.782 3181.937)"/><circle class="b" cx="1.25" cy="1.25" r="1.25" transform="translate(633.532 3189.578)"/><circle class="b" cx="1.25" cy="1.25" r="1.25" transform="translate(636.151 3197.868)"/><circle class="b" cx="1.25" cy="1.25" r="1.25" transform="translate(653.198 3152.969)"/><circle class="b" cx="1.1" cy="1.1" r="1.1" transform="translate(664.716 3181.555)"/><circle class="b" cx="1.1" cy="1.1" r="1.1" transform="translate(690.276 3154.856)"/><circle class="b" cx="1.1" cy="1.1" r="1.1" transform="translate(648.933 3220.053)"/><circle class="b" cx="1.1" cy="1.1" r="1.1" transform="translate(523.729 3171.591)"/><circle class="b" cx="1.1" cy="1.1" r="1.1" transform="translate(496.757 3141.575)"/><circle class="b" cx="1" cy="1" r="1" transform="translate(484.309 3154.304)"/><circle class="b" cx="1" cy="1" r="1" transform="translate(544.528 3186.469)"/><circle class="b" cx="1" cy="1" r="1" transform="translate(566.262 3179.959)"/><circle class="b" cx="1" cy="1" r="1" transform="translate(644.434 3186.403)"/><circle class="b" cx="0.5" cy="0.5" r="0.5" transform="translate(696.988 3178.314)"/><circle class="b" cx="0.5" cy="0.5" r="0.5" transform="translate(688.102 3206.969)"/><circle class="b" cx="0.35" cy="0.35" r="0.35" transform="translate(643.661 3190.259)"/><circle class="b" cx="0.35" cy="0.35" r="0.35" transform="translate(622.575 3161.581)"/><circle class="b" cx="0.35" cy="0.35" r="0.35" transform="translate(577.746 3170.749)"/><circle class="b" cx="0.35" cy="0.35" r="0.35" transform="translate(589.863 3156.337)"/><circle class="b" cx="0.35" cy="0.35" r="0.35" transform="translate(507.185 3157.201)"/><circle class="b" cx="0.35" cy="0.35" r="0.35" transform="translate(458.631 3171.991)"/><circle class="b" cx="0.35" cy="0.35" r="0.35" transform="translate(394.634 3141.079)"/><circle class="b" cx="0.35" cy="0.35" r="0.35" transform="translate(388.733 3148.476)"/><circle class="b" cx="0.35" cy="0.35" r="0.35" transform="translate(358.185 3193.715)"/><circle class="b" cx="0.45" cy="0.45" r="0.45" transform="translate(503.868 3157.201)"/><circle class="b" cx="0.45" cy="0.45" r="0.45" transform="translate(488.922 3171.452)"/><circle class="b" cx="0.5" cy="0.5" r="0.5" transform="translate(638.151 3195.756)"/><circle class="b" cx="0.65" cy="0.65" r="0.65" transform="translate(580.996 3220.859)"/><circle class="b" cx="0.65" cy="0.65" r="0.65" transform="translate(547.594 3155.079)"/><circle class="b" cx="0.65" cy="0.65" r="0.65" transform="translate(439.613 3174.783)"/><circle class="b" cx="0.65" cy="0.65" r="0.65" transform="translate(454.76 3183.937)"/><circle class="b" cx="0.75" cy="0.75" r="0.75" transform="translate(425.991 3144.216)"/><circle class="b" cx="0.75" cy="0.75" r="0.75" transform="translate(304.239 3177.916)"/><circle class="b" cx="0.55" cy="0.55" r="0.55" transform="translate(283.377 3169.499)"/><circle class="b" cx="0.25" cy="0.25" r="0.25" transform="translate(309.264 3144.979)"/><circle class="b" cx="1" cy="1" r="1" transform="translate(315.601 3197.156)"/><circle class="b" cx="1" cy="1" r="1" transform="translate(323.274 3184.328)"/><circle class="b" cx="1" cy="1" r="1" transform="translate(350.944 3190.563)"/><circle class="b" cx="1" cy="1" r="1" transform="translate(367.874 3178.785)"/><circle class="b" cx="0.65" cy="0.65" r="0.65" transform="translate(554.869 3149.02)"/><circle class="b" cx="0.8" cy="0.8" r="0.8" transform="translate(566.188 3139.162)"/><circle class="b" cx="1" cy="1" r="1" transform="translate(513.982 3193.058)"/><circle class="b" cx="1" cy="1" r="1" transform="translate(467.573 3163.394)"/><circle class="b" cx="0.25" cy="0.25" r="0.25" transform="translate(459.081 3180.618)"/><circle class="b" cx="0.25" cy="0.25" r="0.25" transform="translate(467.101 3153.764)"/><circle class="b" cx="0.25" cy="0.25" r="0.25" transform="translate(549.228 3184.54)"/><circle class="b" cx="0.25" cy="0.25" r="0.25" transform="translate(576.289 3194.801)"/><circle class="b" cx="0.25" cy="0.25" r="0.25" transform="translate(603.459 3162.096)"/></g></svg>