<svg xmlns="http://www.w3.org/2000/svg" xmlns:xlink="http://www.w3.org/1999/xlink" width="63.07" height="15.266" viewBox="0 0 63.07 15.266"><defs><style>.a{fill:#e3ddc5;}.b{clip-path:url(#a);}</style><clipPath id="a"><rect class="a" width="63.07" height="15.266"/></clipPath></defs><g class="b"><path class="a" d="M63.07,6.237v9.028H57.213v-4.7H54.621v4.7H48.686V0h5.9V4.62a.794.794,0,1,0,1.588,0V0h6.9L61.492,6.237ZM5.935,9.177V0H0V15.266H11.061V9.177ZM25.97,9.008V0h-5.9V8.123a1.3,1.3,0,1,1-2.593,0V0h-5.9V9.008a6.18,6.18,0,0,0,6.1,6.258H19.87a6.18,6.18,0,0,0,6.1-6.258m16.008,6.258h5.9V0h-5.9ZM35.276,0V4.948L32.618,0H26.782V15.266h5.9V10.318l2.657,4.948h5.831V0Z" transform="translate(0 0)"/></g></svg>