<svg xmlns="http://www.w3.org/2000/svg" width="61.5" height="88" viewBox="0 0 61.5 88"><defs><style>.a{fill:#0d0e15;}.a,.b{stroke:#707070;}.b,.d{fill:none;}.c{stroke:none;}</style></defs><g transform="translate(-851 -3554)"><g class="a" transform="translate(851 3554)"><rect class="c" width="61" height="88"/><rect class="d" x="0.5" y="0.5" width="60" height="87"/></g><line class="b" x2="61" transform="translate(851.5 3616.5)"/><g class="b" transform="translate(898 3625)"><circle class="c" cx="4" cy="4" r="4"/><circle class="d" cx="4" cy="4" r="3.5"/></g><g class="b" transform="translate(876 3565)"><rect class="c" width="12" height="3" rx="1.5"/><rect class="d" x="0.5" y="0.5" width="11" height="2" rx="1"/></g><g class="b" transform="translate(876 3601)"><rect class="c" width="12" height="3" rx="1.5"/><rect class="d" x="0.5" y="0.5" width="11" height="2" rx="1"/></g><g class="b" transform="translate(868 3571)"><rect class="c" width="28" height="3" rx="1.5"/><rect class="d" x="0.5" y="0.5" width="27" height="2" rx="1"/></g><g class="b" transform="translate(866 3595)"><rect class="c" width="32" height="3" rx="1.5"/><rect class="d" x="0.5" y="0.5" width="31" height="2" rx="1"/></g><g class="b" transform="translate(864 3577)"><rect class="c" width="36" height="3" rx="1.5"/><rect class="d" x="0.5" y="0.5" width="35" height="2" rx="1"/></g><g class="b" transform="translate(862 3583)"><rect class="c" width="40" height="3" rx="1.5"/><rect class="d" x="0.5" y="0.5" width="39" height="2" rx="1"/></g><g class="b" transform="translate(864 3589)"><rect class="c" width="36" height="3" rx="1.5"/><rect class="d" x="0.5" y="0.5" width="35" height="2" rx="1"/></g></g></svg>