<svg xmlns="http://www.w3.org/2000/svg" width="65" height="87.41" viewBox="0 0 65 87.41"><defs><style>.a,.b{fill:#0d0e15;}.b{stroke:#707070;}.c,.d{stroke:none;}.d{fill:#707070;}.e{fill:none;}</style></defs><g transform="translate(-600 -3558)"><g class="a" transform="translate(600 3557)"><path class="c" d="M 64.43906402587891 87.91015625 L 0.5609369277954102 87.91015625 L 8.445679664611816 19.50000381469727 L 56.5543212890625 19.50000381469727 L 64.43906402587891 87.91015625 Z"/><path class="d" d="M 8.891361236572266 19.99999237060547 L 1.121871948242188 87.41014099121094 L 63.87812805175781 87.41014099121094 L 56.10863876342773 19.99999237060547 L 8.891361236572266 19.99999237060547 M 8 18.99999237060547 L 57 18.99999237060547 L 65 88.41014099121094 L 0 88.41014099121094 L 8 18.99999237060547 Z"/></g><g class="b" transform="translate(617 3564)"><rect class="c" width="7" height="13"/><rect class="e" x="0.5" y="0.5" width="6" height="12"/></g><g class="a" transform="translate(617 3558)"><path class="c" d="M 30.91288375854492 6.5 L 1.08711576461792 6.5 L 6.229972839355469 0.5 L 25.77002716064453 0.5 L 30.91288375854492 6.5 Z"/><path class="d" d="M 6.459938049316406 1 L 2.174222946166992 6 L 29.82577705383301 6 L 25.54006195068359 1 L 6.459938049316406 1 M 6 0 L 26 0 L 32 7 L 0 7 L 6 0 Z"/></g><g class="b" transform="translate(642 3564)"><rect class="c" width="7" height="13"/><rect class="e" x="0.5" y="0.5" width="6" height="12"/></g></g></svg>