<svg xmlns="http://www.w3.org/2000/svg" width="98.496" height="118.308" viewBox="0 0 98.496 118.308"><defs><style>.a{fill:none;stroke:#707070;stroke-miterlimit:10;}</style></defs><g transform="translate(1.394 2.474)"><path d="M96.723,98.2A47.854,47.854,0,1,1,48.869,50.35,47.854,47.854,0,0,1,96.723,98.2Z" transform="translate(-1.015 -30.724)"/><path class="a" d="M96.723,98.2A47.854,47.854,0,1,1,48.869,50.35,47.854,47.854,0,0,1,96.723,98.2ZM48.869,55.173A43.031,43.031,0,1,0,91.9,98.2,43.031,43.031,0,0,0,48.869,55.173Z" transform="translate(-1.015 -30.724)"/><path d="M62.112,64.816,49.248,2.474,36.384,64.816,1.657,99.638,49.248,87.1,96.839,99.638Z" transform="translate(-1.394 -2.474)"/><path class="a" d="M62.112,64.816,49.248,2.474,36.384,64.816,1.657,99.638,49.248,87.1,96.839,99.638Z" transform="translate(-1.394 -2.474)"/><path d="M46.189,92.457c6.733,0,7.338-.73,7.338-7.16,0,6.429.605,7.16,7.338,7.16-6.733,0-7.338.731-7.338,7.16,0-6.429-.605-7.16-7.338-7.16m-4.37,8.045c4.124,0,4.5-.448,4.5-4.385,0,3.938.371,4.385,4.495,4.385-4.124,0-4.495.448-4.495,4.386,0-3.938-.371-4.386-4.5-4.386m5.73,8.045c2.939,0,3.2-.319,3.2-3.126,0,2.807.264,3.126,3.2,3.126-2.939,0-3.2.319-3.2,3.126,0-2.807-.264-3.126-3.2-3.126" transform="translate(-25.093 -51.346)"/><path class="a" d="M46.189,92.457c6.733,0,7.338-.73,7.338-7.16,0,6.429.605,7.16,7.338,7.16-6.733,0-7.338.731-7.338,7.16C53.527,93.188,52.922,92.457,46.189,92.457Zm-4.37,8.045c4.124,0,4.5-.448,4.5-4.385,0,3.938.371,4.385,4.495,4.385-4.124,0-4.495.448-4.495,4.386C46.314,100.949,45.943,100.5,41.819,100.5Zm5.73,8.045c2.939,0,3.2-.319,3.2-3.126,0,2.807.264,3.126,3.2,3.126-2.939,0-3.2.319-3.2,3.126C50.753,108.866,50.488,108.547,47.549,108.547Z" transform="translate(-25.093 -51.346)"/><path d="M110.971,233.934a40.839,40.839,0,0,1-4.21,1.317V217.435l4.21,1.234Zm-12.533,2.552a41.54,41.54,0,0,0,4.21-.407v-19.85l-4.21-1.235Zm-4.112-21.4-4.21,1.235v19.716a41.416,41.416,0,0,0,4.21.438ZM81.793,233.819A40.983,40.983,0,0,0,86,235.175V217.524l-4.21,1.235Z" transform="translate(-48.681 -127.878)"/><path class="a" d="M110.971,232.934a40.839,40.839,0,0,1-4.21,1.317V218.435l4.21,1.234Zm-12.533,2.552a41.54,41.54,0,0,0,4.21-.407v-17.85l-4.21-1.235Zm-4.112-19.4-4.21,1.235v17.716a41.416,41.416,0,0,0,4.21.438ZM81.793,232.819A40.983,40.983,0,0,0,86,234.175V218.524l-4.21,1.235Z" transform="translate(-48.681 -127.878)"/></g></svg>