<svg xmlns="http://www.w3.org/2000/svg" width="54" height="88.024" viewBox="0 0 54 88.024"><defs><style>.a{fill:#0d0e15;}.b{fill:none;stroke:#707070;}.c,.d{stroke:none;}.d{fill:#707070;}</style></defs><g transform="translate(-861 -3550.999)"><g class="a" transform="translate(3074.5 3245.735)"><path class="c" d="M -2176.500244140625 392.7882690429688 L -2176.500244140625 327.1104125976562 L -2176.500244140625 326.79443359375 L -2176.78564453125 326.6588134765625 C -2178.765380859375 325.718017578125 -2180.441162109375 324.2449035644531 -2181.6318359375 322.398681640625 C -2182.854248046875 320.5037841796875 -2183.500244140625 318.3045043945312 -2183.500244140625 316.0386047363281 C -2183.500244140625 312.0104370117188 -2181.445068359375 308.2916870117188 -2178.083251953125 306.1394348144531 L -2178.083251953125 316.6227111816406 L -2178.083251953125 316.9058532714844 L -2177.84033203125 317.0514831542969 L -2172.006591796875 320.5506896972656 L -2171.74951171875 320.7049865722656 L -2171.4921875 320.5506896972656 L -2165.659423828125 317.0514831542969 L -2165.416748046875 316.9058227539062 L -2165.416748046875 316.6227111816406 L -2165.416748046875 306.1398010253906 C -2162.055419921875 308.2924499511719 -2160.00048828125 312.0110168457031 -2160.00048828125 316.0386047363281 C -2160.00048828125 318.303955078125 -2160.646484375 320.5029602050781 -2161.86865234375 322.3979187011719 C -2163.05908203125 324.2441101074219 -2164.73486328125 325.7171630859375 -2166.71435546875 326.6578979492188 L -2166.999755859375 326.7935180664062 L -2166.999755859375 327.1094970703125 L -2166.999755859375 392.787353515625 L -2176.500244140625 392.7882690429688 Z"/><path class="d" d="M -2176.000244140625 392.2882080078125 L -2167.499755859375 392.2873840332031 L -2167.499755859375 326.4775390625 L -2166.928955078125 326.206298828125 C -2165.033447265625 325.3055114746094 -2163.428955078125 323.8948974609375 -2162.288818359375 322.1268920898438 C -2161.118896484375 320.3129272460938 -2160.50048828125 318.2076416015625 -2160.50048828125 316.0386047363281 C -2160.50048828125 312.5003051757812 -2162.1572265625 309.2108154296875 -2164.916748046875 307.1002197265625 L -2164.916748046875 317.1889343261719 L -2171.74951171875 321.2880554199219 L -2178.583251953125 317.1889953613281 L -2178.583251953125 307.0997009277344 C -2181.34326171875 309.2099609375 -2183.000244140625 312.4995422363281 -2183.000244140625 316.0386047363281 C -2183.000244140625 318.2081909179688 -2182.3818359375 320.3137512207031 -2181.211669921875 322.1277160644531 C -2180.0712890625 323.8956909179688 -2178.466552734375 325.3063659667969 -2176.571044921875 326.2072143554688 L -2176.000244140625 326.4784545898438 L -2176.000244140625 392.2882080078125 M -2166.499755859375 393.2882995605469 L -2177.000244140625 393.2882995605469 L -2177.000244140625 327.1104125976562 C -2179.06396484375 326.1296691894531 -2180.81103515625 324.5937805175781 -2182.052001953125 322.6697082519531 C -2183.32666015625 320.6936950683594 -2184.000244140625 318.4006958007812 -2184.000244140625 316.0386047363281 C -2184.000244140625 311.5398254394531 -2181.54150390625 307.4112854003906 -2177.583251953125 305.2640991210938 L -2177.583251953125 316.6227111816406 L -2171.74951171875 320.1219177246094 L -2165.916748046875 316.6227111816406 L -2165.916748046875 305.2642822265625 C -2161.95849609375 307.4122619628906 -2159.50048828125 311.5410766601562 -2159.50048828125 316.0386047363281 C -2159.50048828125 318.4002685546875 -2160.174072265625 320.6929931640625 -2161.448486328125 322.6689147949219 C -2162.689453125 324.5933837890625 -2164.436279296875 326.12890625 -2166.499755859375 327.1094970703125 L -2166.499755859375 393.2882995605469 Z"/></g><g class="a" transform="translate(3049 3254)"><path class="c" d="M -2177.500244140625 342.4999084472656 L -2182.49951171875 342.4999084472656 L -2182.49951171875 314.0001220703125 L -2182.49951171875 313.8835144042969 L -2182.551025390625 313.7789611816406 L -2185.478515625 307.8433837890625 L -2183.58349609375 297.5 L -2176.4189453125 297.5 L -2174.521484375 308.1495666503906 L -2177.44384765625 313.7694396972656 L -2177.500244140625 313.8778991699219 L -2177.500244140625 314.0001220703125 L -2177.500244140625 342.4999084472656 Z"/><path class="d" d="M -2178.000244140625 341.9999084472656 L -2178.000244140625 313.7556457519531 L -2175.043701171875 308.0697937011719 L -2176.837890625 298 L -2183.166748046875 298 L -2184.95703125 307.7706909179688 L -2181.99951171875 313.7669067382812 L -2181.99951171875 341.9999084472656 L -2178.000244140625 341.9999084472656 M -2177.000244140625 342.9999084472656 L -2182.99951171875 342.9999084472656 L -2182.99951171875 314.0001220703125 L -2186.000244140625 307.9161071777344 L -2184.000244140625 297 L -2176.000244140625 297 L -2173.99951171875 308.2293090820312 L -2177.000244140625 314.0001220703125 L -2177.000244140625 342.9999084472656 Z"/></g><g class="a" transform="translate(3047 3298)"><path class="c" d="M -2170.5 340.5001220703125 L -2185.500244140625 340.5001220703125 L -2185.500244140625 304.5002136230469 L -2184.000244140625 304.5002136230469 L -2183.500244140625 304.5002136230469 L -2183.500244140625 304.0002136230469 L -2183.500244140625 297.9999084472656 L -2183.500244140625 297.4999084472656 L -2184.000244140625 297.4999084472656 L -2185.500244140625 297.4999084472656 L -2185.500244140625 292.4996032714844 L -2170.5 292.4996032714844 L -2170.5 297.4999084472656 L -2171.999755859375 297.4999084472656 L -2172.499755859375 297.4999084472656 L -2172.499755859375 297.9999084472656 L -2172.499755859375 304.0002136230469 L -2172.499755859375 304.5002136230469 L -2171.999755859375 304.5002136230469 L -2170.5 304.5002136230469 L -2170.5 340.5001220703125 Z"/><path class="d" d="M -2171 340.0001220703125 L -2171 305.0002136230469 L -2172.999755859375 305.0002136230469 L -2172.999755859375 296.9999084472656 L -2171 296.9999084472656 L -2171 292.9996032714844 L -2185.000244140625 292.9996032714844 L -2185.000244140625 296.9999084472656 L -2183.000244140625 296.9999084472656 L -2183.000244140625 305.0002136230469 L -2185.000244140625 305.0002136230469 L -2185.000244140625 340.0001220703125 L -2171 340.0001220703125 M -2170 341.0001220703125 L -2186.000244140625 341.0001220703125 L -2186.000244140625 304.0002136230469 L -2184.000244140625 304.0002136230469 L -2184.000244140625 297.9999084472656 L -2186.000244140625 297.9999084472656 L -2186.000244140625 291.9996032714844 L -2170 291.9996032714844 L -2170 297.9999084472656 L -2171.999755859375 297.9999084472656 L -2171.999755859375 304.0002136230469 L -2170 304.0002136230469 L -2170 341.0001220703125 Z"/></g><line class="b" y2="25" transform="translate(869 3607.5)"/></g></svg>