<svg xmlns="http://www.w3.org/2000/svg" width="26" height="26" viewBox="0 0 26 26"><defs><style>.a,.b,.e{fill:none;}.b{stroke:#0d0e15;}.c,.d{stroke:none;}.d{fill:#0d0e15;}</style></defs><g transform="translate(-777 -198)"><g class="a" transform="translate(777 198)"><path class="c" d="M0,0H21l5,5V26H0C0,24.16,0,1.8,0,0Z"/><path class="d" d="M 1 1 L 1 25 L 25 25 L 25 5.414220809936523 L 20.58578109741211 1 L 1 1 M 0 0 L 21 0 C 22.23884010314941 1.238840103149414 24.84997940063477 3.849979400634766 26 5 C 26 24.65685081481934 26 24.37671089172363 26 26 L 0 26 C 0 24.16000938415527 0 1.795129776000977 0 0 Z"/></g><g class="b" transform="translate(782 198)"><rect class="c" width="13" height="7"/><rect class="e" x="0.5" y="0.5" width="12" height="6"/></g><g class="b" transform="translate(782 212)"><rect class="c" width="16" height="12"/><rect class="e" x="0.5" y="0.5" width="15" height="11"/></g></g></svg>